<svg width="24" height="24" viewBox="0 0 24 24" fill="none" xmlns="http://www.w3.org/2000/svg">
<circle cx="12" cy="12" r="12" fill="#FFD200"/>
<path d="M10.6992 15.2383C10.6992 14.459 10.7959 13.8379 10.9893 13.375C11.1826 12.9121 11.5635 12.4053 12.1318 11.8545C12.7061 11.2979 13.0693 10.9023 13.2217 10.668C13.4561 10.3105 13.5732 9.92383 13.5732 9.50781C13.5732 8.95703 13.4355 8.53809 13.1602 8.25098C12.8906 7.95801 12.4922 7.81152 11.9648 7.81152C11.4609 7.81152 11.0537 7.95508 10.7432 8.24219C10.4385 8.52344 10.2861 8.90723 10.2861 9.39355H8.15039C8.16211 8.35645 8.51367 7.53613 9.20508 6.93262C9.90234 6.3291 10.8223 6.02734 11.9648 6.02734C13.1426 6.02734 14.0596 6.32617 14.7158 6.92383C15.3779 7.52148 15.709 8.35645 15.709 9.42871C15.709 10.3838 15.2637 11.3242 14.373 12.25L13.292 13.3135C12.9053 13.7529 12.7061 14.3945 12.6943 15.2383H10.6992ZM10.5498 17.9717C10.5498 17.626 10.6582 17.3477 10.875 17.1367C11.0918 16.9199 11.3848 16.8115 11.7539 16.8115C12.1289 16.8115 12.4248 16.9229 12.6416 17.1455C12.8584 17.3623 12.9668 17.6377 12.9668 17.9717C12.9668 18.2939 12.8613 18.5635 12.6504 18.7803C12.4395 18.9971 12.1406 19.1055 11.7539 19.1055C11.3672 19.1055 11.0684 18.9971 10.8574 18.7803C10.6523 18.5635 10.5498 18.2939 10.5498 17.9717Z" fill="black"/>
</svg>
