<svg width="127" height="128" viewBox="0 0 127 128" fill="none" xmlns="http://www.w3.org/2000/svg">
<path fill-rule="evenodd" clip-rule="evenodd" d="M93.4603 36.5714L52.3175 77.7143C52.3175 77.7143 90.4127 115.81 93.4603 119.365C93.4603 123.429 93.4603 128 84.8254 128H9.65079C0 128 0 119.365 0 119.365V28.9524C0 21.3333 3.95236 18.2857 10.1587 18.2857H13.2064C18.2857 12.6984 20.4878 11.8659 29.4603 11.6825C29.4603 9.14286 36.4358 0 47.2381 0C58.0404 0 65.0159 8.63492 65.0159 11.6825C75.2912 12.0051 76.6984 12.1905 80.7619 18.2857H84.8254C93.4603 18.2857 93.4603 27.4286 93.4603 27.4286V36.5714ZM58.9211 19.3H69.5877C73.6512 19.3 74.1592 22.3476 74.1592 23.8714V27.9349C74.1592 29.9667 72.6353 31.4905 69.5877 31.4905H23.3655C21.3338 31.4905 19.302 29.9667 19.302 27.9349V22.3476C19.302 20.8238 21.3338 19.3 23.3655 19.3H35.0481C35.0481 12.6968 40.3306 7.10951 47.2385 7.10951C54.1465 7.10951 58.9211 12.6968 58.9211 19.3Z" fill="#222222"/>
<path fill-rule="evenodd" clip-rule="evenodd" d="M66.0312 77.8802L96.8123 47.0991L107.904 58.1908L95.7822 70.3126H126.19V85.9986H96.3275L107.935 97.6062L96.8434 108.698L66.0624 77.9169L66.0652 77.9141L66.0312 77.8802Z" fill="#222222"/>
</svg>
