<?xml version="1.0" encoding="iso-8859-1"?>
<svg width="12" height="12" viewBox="0 0 12 12" fill="none" xmlns="http://www.w3.org/2000/svg">
    <path d="M11.7333 10.4279L9.25971 7.95442C9.85581 7.0939 10.154 6.1346 10.154 5.07702C10.154 4.38953 10.0206 3.73202 9.75362 3.10465C9.48686 2.47717 9.12624 1.93633 8.67192 1.482C8.21759 1.02768 7.67682 0.667057 7.04947 0.400274C6.42192 0.133416 5.76446 0 5.07697 0C4.38953 0 3.73202 0.133416 3.10465 0.400274C2.47717 0.667057 1.93633 1.02768 1.482 1.482C1.02762 1.93633 0.667057 2.47727 0.400249 3.10465C0.133416 3.7321 0 4.38953 0 5.07702C0 5.76446 0.133416 6.42174 0.400249 7.0493C0.667031 7.67667 1.02762 8.21744 1.482 8.67176C1.93633 9.12624 2.47727 9.48671 3.10465 9.75364C3.7321 10.0205 4.38953 10.1538 5.07697 10.1538C6.13478 10.1538 7.09393 9.85561 7.95449 9.25956L10.4281 11.7258C10.6011 11.9085 10.8172 11.9999 11.077 11.9999C11.327 11.9999 11.5435 11.9085 11.726 11.7258C11.9086 11.5432 12 11.3269 12 11.0769C12.0001 10.8222 11.9112 10.6058 11.7333 10.4279ZM7.35945 7.35925C6.72725 7.99155 5.96648 8.30769 5.07697 8.30769C4.18761 8.30769 3.42685 7.99147 2.7946 7.35925C2.16235 6.72705 1.84623 5.96638 1.84623 5.07687C1.84623 4.18751 2.16242 3.42662 2.7946 2.7945C3.42672 2.16222 4.18761 1.84613 5.07697 1.84613C5.96638 1.84613 6.72715 2.16235 7.35945 2.7945C7.99175 3.42662 8.30786 4.18751 8.30786 5.07687C8.30786 5.96638 7.99165 6.72705 7.35945 7.35925Z" fill="#446BB3" />
</svg>
